<svg width="278" height="51" viewBox="0 0 278 51" fill="none" xmlns="http://www.w3.org/2000/svg">
<rect width="278" height="51" rx="3" fill="#44C697"/>
<path d="M51.31 31.216C50.242 31.216 49.264 31.036 48.376 30.676C47.488 30.316 46.816 29.854 46.36 29.29L47.692 27.58C48.088 28 48.616 28.336 49.276 28.588C49.948 28.828 50.59 28.948 51.202 28.948C51.982 28.948 52.594 28.81 53.038 28.534C53.482 28.246 53.704 27.874 53.704 27.418C53.704 26.494 52.822 26.032 51.058 26.032H48.628V23.782H51.058C51.802 23.782 52.396 23.674 52.84 23.458C53.284 23.242 53.506 22.924 53.506 22.504C53.506 22.048 53.278 21.7 52.822 21.46C52.366 21.208 51.778 21.082 51.058 21.082C49.75 21.082 48.664 21.496 47.8 22.324L46.522 20.722C47.026 20.146 47.692 19.684 48.52 19.336C49.36 18.988 50.29 18.814 51.31 18.814C52.726 18.814 53.872 19.108 54.748 19.696C55.624 20.284 56.062 21.076 56.062 22.072C56.062 22.792 55.804 23.398 55.288 23.89C54.772 24.37 54.16 24.676 53.452 24.808C54.148 24.88 54.784 25.174 55.36 25.69C55.948 26.194 56.242 26.86 56.242 27.688C56.242 28.72 55.78 29.566 54.856 30.226C53.932 30.886 52.75 31.216 51.31 31.216ZM69.3703 31H66.4543L65.7163 28.966H60.5683L59.8123 31H56.8963L61.5403 18.994H64.7443L69.3703 31ZM65.0143 26.716L63.1423 21.55L61.2703 26.716H65.0143ZM83.493 31H80.919V22.594L77.535 31H76.419L73.035 22.594V31H70.479V18.994H74.061L76.977 26.248L79.893 18.994H83.493V31ZM91.5655 31.216C89.7535 31.216 88.2535 30.634 87.0655 29.47C85.8895 28.294 85.3015 26.806 85.3015 25.006C85.3015 23.206 85.8895 21.724 87.0655 20.56C88.2535 19.384 89.7535 18.796 91.5655 18.796C93.3895 18.796 94.8895 19.378 96.0655 20.542C97.2535 21.706 97.8475 23.194 97.8475 25.006C97.8475 26.818 97.2535 28.306 96.0655 29.47C94.8895 30.634 93.3895 31.216 91.5655 31.216ZM88.9195 27.832C89.5915 28.576 90.4735 28.948 91.5655 28.948C92.6575 28.948 93.5395 28.576 94.2115 27.832C94.8835 27.088 95.2195 26.146 95.2195 25.006C95.2195 23.866 94.8835 22.924 94.2115 22.18C93.5395 21.436 92.6575 21.064 91.5655 21.064C90.4735 21.064 89.5915 21.436 88.9195 22.18C88.2595 22.924 87.9295 23.866 87.9295 25.006C87.9295 26.146 88.2595 27.088 88.9195 27.832ZM106.157 31H99.6411V18.994H105.959C107.051 18.994 107.897 19.294 108.497 19.894C109.109 20.482 109.415 21.202 109.415 22.054C109.415 22.786 109.217 23.398 108.821 23.89C108.425 24.382 107.933 24.688 107.345 24.808C107.993 24.904 108.539 25.234 108.983 25.798C109.427 26.362 109.649 27.016 109.649 27.76C109.649 28.696 109.343 29.47 108.731 30.082C108.119 30.694 107.261 31 106.157 31ZM105.401 23.8C105.833 23.8 106.175 23.68 106.427 23.44C106.679 23.2 106.805 22.888 106.805 22.504C106.805 22.12 106.673 21.808 106.409 21.568C106.157 21.316 105.821 21.19 105.401 21.19H102.197V23.8H105.401ZM105.491 28.786C105.971 28.786 106.349 28.666 106.625 28.426C106.901 28.174 107.039 27.832 107.039 27.4C107.039 27.004 106.901 26.674 106.625 26.41C106.349 26.134 105.971 25.996 105.491 25.996H102.197V28.786H105.491ZM114.043 31H111.577V18.994H114.133V26.752L119.695 18.994H122.323V31H119.767V22.954L114.043 31ZM130.036 31H127.462V21.244H123.952V18.994H133.528V21.244H130.036V31ZM137.633 31H135.167V18.994H137.723V26.752L143.285 18.994H145.913V31H143.357V22.954L137.633 31ZM152.165 33.214V28.948C152.621 28.888 152.975 28.768 153.227 28.588C153.491 28.408 153.731 28.042 153.947 27.49C154.163 26.938 154.331 26.152 154.451 25.132L155.153 18.994H163.685V28.75H164.765V33.214H162.209V31H154.721V33.214H152.165ZM156.989 25.312C156.821 26.86 156.335 28.006 155.531 28.75H161.111V21.244H157.457L156.989 25.312ZM170.384 31.216C169.316 31.216 168.338 31.036 167.45 30.676C166.562 30.316 165.89 29.854 165.434 29.29L166.766 27.58C167.162 28 167.69 28.336 168.35 28.588C169.022 28.828 169.664 28.948 170.276 28.948C171.056 28.948 171.668 28.81 172.112 28.534C172.556 28.246 172.778 27.874 172.778 27.418C172.778 26.494 171.896 26.032 170.132 26.032H167.702V23.782H170.132C170.876 23.782 171.47 23.674 171.914 23.458C172.358 23.242 172.58 22.924 172.58 22.504C172.58 22.048 172.352 21.7 171.896 21.46C171.44 21.208 170.852 21.082 170.132 21.082C168.824 21.082 167.738 21.496 166.874 22.324L165.596 20.722C166.1 20.146 166.766 19.684 167.594 19.336C168.434 18.988 169.364 18.814 170.384 18.814C171.8 18.814 172.946 19.108 173.822 19.696C174.698 20.284 175.136 21.076 175.136 22.072C175.136 22.792 174.878 23.398 174.362 23.89C173.846 24.37 173.234 24.676 172.526 24.808C173.222 24.88 173.858 25.174 174.434 25.69C175.022 26.194 175.316 26.86 175.316 27.688C175.316 28.72 174.854 29.566 173.93 30.226C173.006 30.886 171.824 31.216 170.384 31.216ZM183.765 31H177.249V18.994H183.567C184.659 18.994 185.505 19.294 186.105 19.894C186.717 20.482 187.023 21.202 187.023 22.054C187.023 22.786 186.825 23.398 186.429 23.89C186.033 24.382 185.541 24.688 184.953 24.808C185.601 24.904 186.147 25.234 186.591 25.798C187.035 26.362 187.257 27.016 187.257 27.76C187.257 28.696 186.951 29.47 186.339 30.082C185.727 30.694 184.869 31 183.765 31ZM183.009 23.8C183.441 23.8 183.783 23.68 184.035 23.44C184.287 23.2 184.413 22.888 184.413 22.504C184.413 22.12 184.281 21.808 184.017 21.568C183.765 21.316 183.429 21.19 183.009 21.19H179.805V23.8H183.009ZM183.099 28.786C183.579 28.786 183.957 28.666 184.233 28.426C184.509 28.174 184.647 27.832 184.647 27.4C184.647 27.004 184.509 26.674 184.233 26.41C183.957 26.134 183.579 25.996 183.099 25.996H179.805V28.786H183.099ZM191.74 31H189.184V18.994H191.74V31ZM204.924 31H202.35V25.96H196.68V31H194.124V18.994H196.68V23.71H202.35V18.994H204.924V31ZM212.978 31.216C211.166 31.216 209.666 30.634 208.478 29.47C207.302 28.294 206.714 26.806 206.714 25.006C206.714 23.206 207.302 21.724 208.478 20.56C209.666 19.384 211.166 18.796 212.978 18.796C214.802 18.796 216.302 19.378 217.478 20.542C218.666 21.706 219.26 23.194 219.26 25.006C219.26 26.818 218.666 28.306 217.478 29.47C216.302 30.634 214.802 31.216 212.978 31.216ZM210.332 27.832C211.004 28.576 211.886 28.948 212.978 28.948C214.07 28.948 214.952 28.576 215.624 27.832C216.296 27.088 216.632 26.146 216.632 25.006C216.632 23.866 216.296 22.924 215.624 22.18C214.952 21.436 214.07 21.064 212.978 21.064C211.886 21.064 211.004 21.436 210.332 22.18C209.672 22.924 209.342 23.866 209.342 25.006C209.342 26.146 209.672 27.088 210.332 27.832ZM231.331 31H228.181L224.545 26.194L223.609 27.31V31H221.053V18.994H223.609V24.358L227.857 18.994H231.007L226.237 24.628L231.331 31Z" fill="white"/>
</svg>
